<?xml version="1.0" encoding="UTF-8" standalone="no"?>
<!-- Created with Inkscape (http://www.inkscape.org/) -->

<svg
   width="140.04666mm"
   height="170.9846mm"
   viewBox="0 0 140.04666 170.9846"
   version="1.1"
   id="svg1"
   xmlns:xlink="http://www.w3.org/1999/xlink"
   xmlns="http://www.w3.org/2000/svg"
   xmlns:svg="http://www.w3.org/2000/svg"
   xmlns:serif="http://www.serif.com/">
  <defs
     id="defs1">
    <linearGradient
       id="_Linear1"
       x1="0"
       y1="0"
       x2="1"
       y2="0"
       gradientUnits="userSpaceOnUse"
       gradientTransform="matrix(710.131,950.61,-950.61,710.131,-75.3439,-121.326)">
      <stop
         offset="0"
         style="stop-color:rgb(3,151,209);stop-opacity:1"
         id="stop1" />
      <stop
         offset="0.25"
         style="stop-color:rgb(0,127,194);stop-opacity:1"
         id="stop2" />
      <stop
         offset="0.5"
         style="stop-color:rgb(0,123,189);stop-opacity:1"
         id="stop3" />
      <stop
         offset="1"
         style="stop-color:rgb(18,59,114);stop-opacity:1"
         id="stop4" />
    </linearGradient>
    <linearGradient
       xlink:href="#linearGradient48"
       id="linearGradient35"
       x1="254.35551"
       y1="825.37048"
       x2="300.97952"
       y2="903.31134"
       gradientUnits="userSpaceOnUse"
       gradientTransform="matrix(0.21397016,0,0,0.21397016,-12.63782,14.84983)" />
    <linearGradient
       id="linearGradient48">
      <stop
         style="stop-color:#0081c3;stop-opacity:1;"
         offset="0"
         id="stop47" />
      <stop
         style="stop-color:#0371b2;stop-opacity:1;"
         offset="1"
         id="stop48" />
    </linearGradient>
    <linearGradient
       xlink:href="#linearGradient48"
       id="linearGradient56"
       x1="249.96681"
       y1="801.16333"
       x2="315.80273"
       y2="907.02734"
       gradientUnits="userSpaceOnUse"
       gradientTransform="matrix(0.21397016,0,0,0.21397016,-12.63782,14.84983)" />
    <linearGradient
       xlink:href="#linearGradient41"
       id="linearGradient42"
       x1="373.53751"
       y1="804.84937"
       x2="426.4418"
       y2="903.17505"
       gradientUnits="userSpaceOnUse"
       gradientTransform="matrix(0.21397016,0,0,0.21397016,-16.917223,14.84983)" />
    <linearGradient
       id="linearGradient41">
      <stop
         style="stop-color:#0178b9;stop-opacity:1;"
         offset="0"
         id="stop41" />
      <stop
         style="stop-color:#0664a4;stop-opacity:1;"
         offset="1"
         id="stop42" />
    </linearGradient>
    <linearGradient
       xlink:href="#linearGradient41"
       id="linearGradient64"
       x1="342.14517"
       y1="801.35107"
       x2="410.02734"
       y2="906.85352"
       gradientUnits="userSpaceOnUse"
       gradientTransform="matrix(0.21397016,0,0,0.21397016,-12.63782,14.84983)" />
    <linearGradient
       xlink:href="#linearGradient43"
       id="linearGradient44"
       x1="430.28436"
       y1="803.79858"
       x2="487.15207"
       y2="904.12421"
       gradientUnits="userSpaceOnUse"
       gradientTransform="matrix(0.21397016,0,0,0.21111767,-9.6422379,17.145658)" />
    <linearGradient
       id="linearGradient43">
      <stop
         style="stop-color:#046aa9;stop-opacity:1;"
         offset="0"
         id="stop43" />
      <stop
         style="stop-color:#0a5995;stop-opacity:1;"
         offset="1"
         id="stop44" />
    </linearGradient>
    <linearGradient
       xlink:href="#linearGradient43"
       id="linearGradient66"
       x1="440.7168"
       y1="801.35156"
       x2="504.94098"
       y2="907.4043"
       gradientUnits="userSpaceOnUse"
       gradientTransform="matrix(0.21397016,0,0,0.21397016,-12.63782,14.84983)" />
    <linearGradient
       xlink:href="#linearGradient45"
       id="linearGradient46"
       x1="519.14844"
       y1="854.0127"
       x2="574.07117"
       y2="903.17505"
       gradientUnits="userSpaceOnUse"
       gradientTransform="matrix(0.21397016,0,0,0.21397016,-8.3584165,14.84983)" />
    <linearGradient
       id="linearGradient45">
      <stop
         style="stop-color:#095d99;stop-opacity:1;"
         offset="0"
         id="stop45" />
      <stop
         style="stop-color:#0d4c87;stop-opacity:1;"
         offset="1"
         id="stop46" />
    </linearGradient>
    <linearGradient
       xlink:href="#linearGradient45"
       id="linearGradient69"
       x1="534.05231"
       y1="799.72601"
       x2="599.15704"
       y2="908.38025"
       gradientUnits="userSpaceOnUse"
       gradientTransform="matrix(0.21397016,0,0,0.21397016,-12.63782,14.84983)" />
    <linearGradient
       xlink:href="#linearGradient45"
       id="linearGradient76"
       x1="562.18256"
       y1="823.95483"
       x2="571.84204"
       y2="884.80969"
       gradientUnits="userSpaceOnUse"
       gradientTransform="matrix(0.21397016,0,0,0.21397016,-12.63782,14.84983)" />
  </defs>
  <g
     id="layer1"
     transform="translate(-34.976659,-38.022666)">
    <g
       id="Layer-1"
       serif:id="Layer 1"
       transform="matrix(0.11803703,0,0,0.11803703,71.981742,66.263039)"
       style="clip-rule:evenodd;display:inline;fill-rule:evenodd;stroke-linejoin:round;stroke-miterlimit:2">
      <g
         transform="matrix(0.989999,0,0,0.989999,-900.214,-239.25)"
         id="g1"
         style="display:inline">
        <circle
           cx="1191.86"
           cy="599.22302"
           r="599.22302"
           style="fill:#ffffff"
           id="circle1" />
      </g>
      <path
         id="path36-2"
         d="M 279.552,-239.25 C 155.923,-239.329 31.239,-200.945 -75.343,-121.326 -337.699,74.661 -391.559,446.692 -195.572,709.048 0.415,971.404 372.432,1025.27 634.788,829.285 897.144,633.298 951.027,261.272 755.04,-1.084 638.673,-156.858 460.24,-239.134 279.552,-239.25 Z m 0.014,6.123 C 458.365,-233.02 634.921,-151.59 750.106,2.602 944.102,262.293 890.805,630.369 631.113,824.366 371.421,1018.36 3.344,965.064 -190.653,705.372 -384.649,445.681 -331.349,77.604 -71.658,-116.392 33.842,-195.203 157.229,-233.2 279.565,-233.127 Z m 0.025,9.318 C 159.221,-223.873 37.81,-186.463 -66.04,-108.885 -321.671,82.078 -374.096,444.119 -183.132,699.75 7.831,955.381 369.87,1007.81 625.501,816.842 881.132,625.879 933.557,263.839 742.593,8.208 629.209,-143.573 455.513,-223.715 279.59,-223.809 Z M -43.64,-87.542 15.889,-47.298 67.309,-85.711 50.442,-21.48 105.589,19.354 37.321,20.836 16.534,85.88 -6.978,21.413 l -66.378,-2.045 51.42,-38.411 z m 633.601,90.57 59.528,40.242 51.421,-38.412 -16.868,64.231 55.147,40.834 -68.268,1.483 -20.786,65.042 -23.512,-64.465 -66.378,-2.045 51.421,-38.411 z M 263.119,10.672 C 373.319,5.44 484.066,53.261 555.062,148.299 668.655,300.36 637.472,515.718 485.411,629.312 333.35,742.906 117.993,711.721 4.399,559.66 -109.195,407.599 -78.011,192.24 74.05,78.646 131.073,36.049 196.997,13.811 263.118,10.672 Z m 0.47,9.317 C 199.28,23.051 135.154,44.701 79.655,86.161 -68.345,196.72 -98.643,406.05 11.916,554.05 122.475,702.049 331.791,732.358 479.79,621.798 627.788,511.239 658.111,301.913 547.552,153.914 478.453,61.415 370.768,14.886 263.588,19.989 Z m 0.313,6.118 C 369.094,21.087 474.765,66.766 542.62,157.6 651.188,302.934 621.438,508.294 476.104,616.863 330.769,725.433 125.421,695.697 16.852,550.362 -91.717,405.028 -61.994,199.663 83.341,91.094 137.842,50.381 200.785,29.119 263.901,26.107 Z m 66.941,37.725 -102.145,76.304 -12.855,88.787 165.557,221.619 88.785,12.857 101.794,-76.043 12.94,-89.371 -66.68,-89.261 -95.351,71.23 31.549,42.233 -13.297,9.931 -95.553,-127.911 13.295,-9.933 34.119,45.673 95.351,-71.231 -68.738,-92.015 z m 1.645,6.46 83.731,12.125 63.529,85.041 -85.513,63.881 -34.121,-45.674 -23.149,17.292 102.916,137.767 23.148,-17.294 -31.536,-42.215 85.515,-63.88 61.467,82.283 -12.224,84.328 -97.713,72.993 -83.731,-12.123 -162.505,-217.538 12.123,-83.731 z m 2.492,9.839 -91.834,68.602 -11.01,76.042 157.858,211.314 76.041,11.011 91.494,-68.348 11.097,-76.637 -53.524,-71.648 -70.475,52.646 31.539,42.222 -38.176,28.519 -114.148,-152.801 38.177,-28.519 34.121,45.675 70.475,-52.646 -55.596,-74.422 z M 118.543,222.425 -35.23,337.297 206.255,660.56 360.029,545.687 372.626,458.589 205.625,235.034 Z m 1.645,6.46 82.043,11.865 163.952,219.473 -11.882,82.054 L 207.503,651.939 -26.609,338.546 Z m 2.498,9.833 L -13.487,340.444 209.4,638.811 345.575,537.085 356.342,462.734 197.039,249.485 Z m 25.381,93.642 114.147,152.802 -36.402,27.192 -114.146,-152.801 z m -1.898,13.126 -21.368,15.961 102.916,137.767 21.367,-15.962 z m -1.247,8.621 95.554,127.913 -11.514,8.602 -95.555,-127.913 z m -289.651,197.461 59.529,40.241 51.422,-38.413 -16.869,64.232 55.148,40.834 -68.269,1.481 -20.785,65.044 -23.512,-64.465 -66.378,-2.045 51.419,-38.411 z m 644.192,102.902 59.528,40.243 51.421,-38.413 -16.868,64.232 55.147,40.834 -68.268,1.481 -20.786,65.043 -23.512,-64.465 -66.378,-2.044 51.42,-38.41 z"
         style="fill:url(#_Linear1);fill-rule:nonzero" />
    </g>
    <path
       style="clip-rule:evenodd;display:inline;fill:url(#linearGradient35);fill-rule:evenodd;stroke:none;stroke-width:0.738197;stroke-linecap:butt;stroke-linejoin:round;stroke-miterlimit:0;stroke-dasharray:none;stroke-opacity:1;paint-order:normal"
       d="m 46.102395,201.4245 h -4.440647 c 0,0 -0.866569,6.707 6.290748,6.707 1.1882,0 6.283598,0.0111 6.283598,-6.1048 0,-5.97636 -7.998791,-6.62634 -7.998791,-9.48293 0,-0.92158 0.247141,-1.82145 1.429007,-1.82145 1.650036,0 1.336557,2.03505 1.336557,2.03505 h 4.238292 c 0,0 0.872423,-5.56572 -5.573716,-5.68599 -4.804175,-0.0896 -6.005695,3.37436 -6.005695,5.68599 0,5.60648 7.983968,6.37404 7.983968,9.61877 0,1.35786 -0.81609,1.74887 -1.788615,1.74887 -2.054995,0 -1.754706,-2.70051 -1.754706,-2.70051 z"
       id="path9" />
    <path
       id="path52"
       style="clip-rule:evenodd;display:inline;fill:url(#linearGradient56);fill-rule:evenodd;stroke:none;stroke-width:0.793921;stroke-linecap:butt;stroke-linejoin:round;stroke-miterlimit:0;stroke-dasharray:none;stroke-opacity:1;paint-order:normal"
       d="m 47.647436,186.27671 c -5.167721,0 -6.745071,3.62874 -6.745071,6.11487 0,6.74984 7.966621,7.25213 7.966621,9.91576 0,0.71838 -0.161951,1.02639 -1.017611,1.02639 -1.318142,0 -0.945361,-2.66252 -0.945361,-2.66252 H 40.89609 c 0,0 -1.089173,8.25541 7.058096,8.25541 1.277893,0 7.043951,-0.12323 7.043951,-6.70077 0,-6.92037 -7.966701,-7.3968 -7.966701,-9.78538 0,-0.89178 0.317902,-0.92735 0.650272,-0.92735 0.830251,0 0.507576,2.013 0.507576,2.013 h 5.925553 c 0,0 1.066731,-7.24941 -6.467401,-7.24941 z m -0.02055,0.36275 c 6.944336,0 6.096973,6.57916 6.096973,6.57916 H 48.58695 c 0,0 0.418797,-2.01365 -0.930311,-2.01365 -1.101029,0 -0.974985,1.01129 -0.974985,1.28049 0,2.70153 7.998985,3.17872 7.998985,9.75319 0,6.11265 -5.49603,6.33715 -6.727286,6.33715 -7.618991,0 -6.709972,-7.58369 -6.709972,-7.58369 h 5.269432 c 0,0 -0.287665,2.67329 1.403348,2.67329 1.00776,0 1.2604,-0.53196 1.2604,-1.35724 0,-2.88683 -7.94603,-3.62487 -7.94603,-9.92915 0,-2.78885 1.979356,-5.73955 6.396355,-5.73955 z" />
    <path
       style="clip-rule:evenodd;display:inline;fill:url(#linearGradient42);fill-rule:evenodd;stroke:none;stroke-width:0.738197;stroke-linecap:butt;stroke-linejoin:round;stroke-miterlimit:0;stroke-dasharray:none;paint-order:normal"
       d="m 65.59628,208.10234 h 4.631768 V 191.08799 H 74.3286 v -4.02441 H 61.355182 v 4.02441 h 4.241098 z"
       id="path17" />
    <path
       id="path62"
       style="clip-rule:evenodd;display:inline;fill:url(#linearGradient64);fill-rule:evenodd;stroke:none;stroke-width:0.320955;stroke-linecap:square;stroke-linejoin:miter;stroke-miterlimit:4;stroke-dasharray:none;stroke-opacity:1;paint-order:markers stroke fill"
       d="m 60.570899,186.31516 v 5.57576 h 4.18203 v 16.9985 h 6.30836 v -16.9985 h 4.034506 v -5.57576 z m 0.359817,0.27832 h 13.861677 v 4.96061 h -4.1206 v 16.98972 h -5.546924 v -16.98972 h -4.194153 z" />
    <path
       style="clip-rule:evenodd;display:inline;fill:url(#linearGradient44);fill-rule:evenodd;stroke:none;stroke-width:0.733261;stroke-linecap:butt;stroke-linejoin:round;stroke-miterlimit:0;stroke-dasharray:none;paint-order:normal"
       d="m 82.425769,187.06358 v 15.18117 c 0,3.31334 1.887505,5.99935 6.080411,5.99935 6.456209,0 6.083597,-5.99935 6.083597,-5.99935 v -15.18117 h -4.620526 v 16.13312 c 0,0.74703 -0.613767,1.35262 -1.370886,1.35262 h -0.158701 c -0.757118,0 -1.370886,-0.60559 -1.370886,-1.35262 v -16.13312 z"
       id="path22" />
    <path
       id="path64"
       style="clip-rule:evenodd;display:inline;fill:url(#linearGradient66);fill-rule:evenodd;stroke:none;stroke-width:0.806571;stroke-linecap:butt;stroke-linejoin:round;stroke-miterlimit:0;stroke-dasharray:none;paint-order:normal"
       d="m 81.662424,186.31516 v 16.26466 c 0,3.54982 2.131839,6.42745 6.867104,6.42745 7.291343,0 6.870452,-6.42745 6.870452,-6.42745 v -16.26466 h -6.188002 v 16.828 a 0.6948557,0.6948557 0 0 1 -0.694565,0.69498 0.69199505,0.69199505 0 0 1 -0.689138,-0.69498 v -16.828 z m 0.322626,0.30883 h 5.538989 v 16.46316 a 1.0110013,1.0110013 0 0 0 1.00967,1.01218 1.0122991,1.0122991 0 0 0 1.012176,-1.01218 v -16.46316 h 5.532303 v 15.80161 c 0,0 0.401102,6.24484 -6.548239,6.24484 -4.513164,0 -6.544899,-2.79602 -6.544899,-6.24484 z" />
    <path
       id="path24"
       style="clip-rule:evenodd;display:inline;fill:url(#linearGradient46);fill-rule:evenodd;stroke:none;stroke-width:0.738197;stroke-linecap:butt;stroke-linejoin:round;stroke-miterlimit:0;stroke-dasharray:none;paint-order:normal"
       d="m 102.72386,187.06363 v 21.03888 h 7.19266 c 4.61504,0 4.91671,-4.05804 4.91671,-5.34467 V 192.3314 c 0,-2.90929 -2.35847,-5.26777 -5.26776,-5.26777 z m 4.47958,3.57899 h 1.28258 a 1.7101712,1.7101712 0 0 1 1.71008,1.71051 v 10.8573 a 1.4405643,1.4405643 0 0 1 -1.44054,1.44055 h -1.55212 z" />
    <path
       id="path66"
       style="clip-rule:evenodd;display:inline;fill:url(#linearGradient69);fill-rule:evenodd;stroke:none;stroke-width:0.812599;stroke-linecap:butt;stroke-linejoin:round;stroke-miterlimit:0;stroke-dasharray:none;paint-order:normal"
       d="m 101.94821,186.31516 v 22.59809 h 8.11415 c 5.2063,0 5.54652,-4.91531 5.54652,-6.2973 v -9.97496 c 0,-3.97075 -2.66069,-6.32583 -5.94269,-6.32583 z m 0.39409,0.34979 h 7.33559 c 3.56457,0 5.56899,3.00308 5.56899,6.03923 v 9.70805 c 0,1.33922 -0.24409,6.15123 -5.19246,6.15123 h -7.71212 z" />
    <path
       id="path74"
       style="clip-rule:evenodd;display:inline;fill:url(#linearGradient76);fill-opacity:0.996078;fill-rule:evenodd;stroke:none;stroke-width:0.320955;stroke-linecap:square;stroke-linejoin:miter;stroke-miterlimit:4;stroke-dasharray:none;stroke-opacity:1;paint-order:markers stroke fill"
       d="m 107.65228,191.15164 v 13.02125 h 0.94991 a 1.1172982,1.1172982 0 0 0 1.11707,-1.1175 v -10.78668 a 1.1172982,1.1172982 0 0 0 -1.11707,-1.11707 z m 0.33391,0.38155 h 0.69749 a 0.67000129,0.67000129 0 0 1 0.66991,0.6699 v 10.99356 a 0.67000129,0.67000129 0 0 1 -0.66991,0.66992 h -0.69749 z" />
    <path
       style="clip-rule:evenodd;display:inline;fill:#0b4f8a;fill-opacity:1;fill-rule:evenodd;stroke:none;stroke-width:0.738197;stroke-linecap:butt;stroke-linejoin:round;stroke-miterlimit:0;stroke-dasharray:none;paint-order:normal"
       d="m 122.90874,187.06358 h 4.62053 v 21.03876 h -4.62053 z"
       id="path28" />
    <path
       id="path81"
       style="clip-rule:evenodd;display:inline;fill:#0c518c;fill-opacity:1;fill-rule:evenodd;stroke:none;stroke-width:0.320955;stroke-linecap:square;stroke-linejoin:miter;stroke-miterlimit:4;stroke-dasharray:none;stroke-opacity:1;paint-order:markers stroke fill"
       d="m 122.04302,186.31516 v 22.57426 h 6.27326 v -22.57426 z m 0.35564,0.32931 h 5.57242 v 21.89265 h -5.57242 z" />
    <path
       id="path33"
       style="clip-rule:evenodd;display:inline;fill:#0e4884;fill-opacity:1;fill-rule:evenodd;stroke:none;stroke-width:0.738197;stroke-linecap:butt;stroke-linejoin:round;stroke-miterlimit:0;stroke-dasharray:none;paint-order:normal"
       d="m 141.02912,187.06363 a 5.538015,5.538015 0 0 0 -5.53774,5.53816 v 9.96256 a 5.538015,5.538015 0 0 0 5.53774,5.53816 h 1.1505 a 5.538015,5.538015 0 0 0 5.53773,-5.53816 v -9.96256 a 5.538015,5.538015 0 0 0 -5.53773,-5.53816 z m 0.60513,3.68263 a 1.4952228,1.4952228 0 0 1 1.48776,1.50239 v 10.83515 a 1.5024246,1.5024246 0 0 1 -1.50239,1.5024 1.4952228,1.4952228 0 0 1 -1.48777,-1.5024 v -10.83515 a 1.5024246,1.5024246 0 0 1 1.5024,-1.50239 z" />
    <path
       id="path85"
       style="clip-rule:evenodd;display:inline;fill:#0f437b;fill-opacity:1;fill-rule:evenodd;stroke:none;stroke-width:0.320955;stroke-linecap:square;stroke-linejoin:miter;stroke-miterlimit:4;stroke-dasharray:none;stroke-opacity:1;paint-order:markers stroke fill"
       d="m 140.84899,186.31516 a 6.1049318,6.1049318 0 0 0 -6.10484,6.10484 v 10.36417 a 6.1049318,6.1049318 0 0 0 6.10484,6.10525 h 1.52663 a 6.1049318,6.1049318 0 0 0 6.10484,-6.10525 V 192.42 a 6.1049318,6.1049318 0 0 0 -6.10484,-6.10484 z m -0.002,0.32931 h 1.49986 a 5.7525664,5.7525664 0 0 1 5.75255,5.75254 v 10.38716 a 5.7525664,5.7525664 0 0 1 -5.75255,5.75295 h -1.49986 a 5.7525664,5.7525664 0 0 1 -5.75255,-5.75295 v -10.38716 a 5.7525664,5.7525664 0 0 1 5.75255,-5.75254 z" />
    <path
       id="path89"
       style="clip-rule:evenodd;display:inline;fill:#0f437b;fill-opacity:1;fill-rule:evenodd;stroke:none;stroke-width:0.320955;stroke-linecap:square;stroke-linejoin:miter;stroke-miterlimit:4;stroke-dasharray:none;stroke-opacity:1;paint-order:markers stroke fill"
       d="m 141.48924,191.28043 c -0.49389,1e-4 -0.89423,0.33685 -0.89434,0.83073 v 11.13939 c -1.2e-4,0.49406 0.40028,0.89465 0.89434,0.89476 h 0.2779 c 0.49405,-1.1e-4 0.85483,-0.4007 0.85471,-0.89476 v -11.13939 c -1.1e-4,-0.49388 -0.36083,-0.83063 -0.85471,-0.83073 z m 0.0246,0.3058 h 0.15838 c 0.34437,0 0.62354,0.30301 0.62352,0.64737 v 10.92251 c 2e-5,0.34437 -0.27915,0.67973 -0.62352,0.67973 h -0.15838 c -0.34438,0 -0.62355,-0.33535 -0.62354,-0.67973 V 192.2336 c -1e-5,-0.34436 0.27916,-0.64737 0.62354,-0.64737 z" />
    <path
       style="clip-rule:evenodd;display:inline;fill:#123f76;fill-opacity:1;fill-rule:evenodd;stroke:none;stroke-width:0.738197;stroke-linecap:butt;stroke-linejoin:round;stroke-miterlimit:0;stroke-dasharray:none;paint-order:normal"
       d="m 160.19214,201.4245 h -4.44065 c 0,0 -0.86657,6.707 6.29074,6.707 1.1882,0 6.2836,0.0111 6.2836,-6.1048 0,-5.97636 -7.99879,-6.62634 -7.99879,-9.48293 0,-0.92158 0.24714,-1.82145 1.42902,-1.82145 1.65003,0 1.33655,2.03505 1.33655,2.03505 h 4.23828 c 0,0 0.87242,-5.56572 -5.57371,-5.68599 -4.80418,-0.0896 -6.00569,3.37436 -6.00569,5.68599 0,5.60648 7.98397,6.37404 7.98397,9.61877 0,1.35786 -0.8161,1.74887 -1.78862,1.74887 -2.055,0 -1.7547,-2.70051 -1.7547,-2.70051 z"
       id="path34" />
    <path
       id="path82"
       style="clip-rule:evenodd;display:inline;fill:#123f76;fill-opacity:1;fill-rule:evenodd;stroke:none;stroke-width:0.793921;stroke-linecap:butt;stroke-linejoin:round;stroke-miterlimit:0;stroke-dasharray:none;stroke-opacity:1;paint-order:normal"
       d="m 161.72994,186.27671 c -5.16772,0 -6.74507,3.62874 -6.74507,6.11487 0,6.74984 7.96663,7.25213 7.96663,9.91576 0,0.71838 -0.16195,1.02639 -1.01761,1.02639 -1.31815,0 -0.94537,-2.66252 -0.94537,-2.66252 h -6.00991 c 0,0 -1.08919,8.25541 7.05809,8.25541 1.27788,0 7.04395,-0.12323 7.04395,-6.70077 0,-6.92037 -7.9667,-7.3968 -7.9667,-9.78538 0,-0.89178 0.3179,-0.92735 0.65026,-0.92735 0.83026,0 0.50758,2.013 0.50758,2.013 h 5.92555 c 0,0 1.06673,-7.24941 -6.4674,-7.24941 z m -0.0205,0.36275 c 6.94433,0 6.09697,6.57916 6.09697,6.57916 h -5.1369 c 0,0 0.41879,-2.01365 -0.93031,-2.01365 -1.10104,0 -0.97499,1.01129 -0.97499,1.28049 0,2.70153 7.99899,3.17872 7.99899,9.75319 0,6.11265 -5.49604,6.33715 -6.72729,6.33715 -7.619,0 -6.70998,-7.58369 -6.70998,-7.58369 h 5.26945 c 0,0 -0.28768,2.67329 1.40333,2.67329 1.00776,0 1.26041,-0.53196 1.26041,-1.35724 0,-2.88683 -7.94603,-3.62487 -7.94603,-9.92915 0,-2.78885 1.97935,-5.73955 6.39635,-5.73955 z" />
  </g>
</svg>
